# xmcd
#
# Track frame offsets:
#	150
#	15565
#	30375
#	46462
#	63663
#	79610
#	91290
#	106329
#	122081
#	135266
#	153693
#	171115
#	187404
#	205310
#	222111
#	237102
#	250814
#	268734
#	282494
#	298775
#	317286
#
# Disc length: 4403 seconds
#
# Revision: 0
# Processed by: cddbd v1.5.2PL0 Copyright (c) Steve Scherf et al.
# Submitted via: dBpowerAMP V4.0
#
DISCID=2f113115
DTITLE=Various Artist - ERG Nu Country Traxx Vol. 225 CAN
DYEAR=2013
DGENRE=Country
TTITLE0=Gary Allan - Pieces
TTITLE1=Lady Antebellum - Downtown
TTITLE2=Kenny Chesney - Pirate Flag
TTITLE3=Tebey - Somewhere In The Country
TTITLE4=Chad Brownlee - Crash
TTITLE5=Greg Bates  - Fill In The Blank
TTITLE6=Gil Grand - Baby Knows A Lot About Leavin'
TTITLE7=JJ Lawhorn - Stomping Grounds
TTITLE8=Lindsay Broughton - River Wide Enough Song
TTITLE9=Don Murdock - Don't Call Me A Hero
TTITLE10=Jaida Dreyer - Half Broke Horses
TTITLE11=Tyler Farr - Redneck Crazy
TTITLE12=Rachel Farley - Ain't Easy
TTITLE13=Lonestar  - Maybe Someday
TTITLE14=Genevieve Fisher - Shut Down This Day
TTITLE15=Jason Cassidy - Blame It On Waylon
TTITLE16=Vince Anthony - Let's Just Love Each Other Tonight
TTITLE17=Krstin Kelly - He Loves To Make Me Cry
TTITLE18=Wayne Warner - A Flight Called You
TTITLE19=Charlie Major - Hold Me
TTITLE20=Elvis Carden - School Bus Driver
EXTD=
EXTT0=
EXTT1=
EXTT2=
EXTT3=
EXTT4=
EXTT5=
EXTT6=
EXTT7=
EXTT8=
EXTT9=
EXTT10=
EXTT11=
EXTT12=
EXTT13=
EXTT14=
EXTT15=
EXTT16=
EXTT17=
EXTT18=
EXTT19=
EXTT20=
PLAYORDER=
